<?xml version="1.0" encoding="utf-8"?>
<!-- Generator: Adobe Illustrator 26.3.1, SVG Export Plug-In . SVG Version: 6.00 Build 0)  -->
<svg version="1.1" id="Layer_1" xmlns="http://www.w3.org/2000/svg" xmlns:xlink="http://www.w3.org/1999/xlink" x="0px" y="0px"
	 viewBox="0 0 398 99" style="enable-background:new 0 0 398 99;" xml:space="preserve">
<style type="text/css">
	.st0{fill:#0C323F;}
	.st1{fill:#32BEBB;}
	.st2{fill:#008080;}
	.st3{fill:#008181;}
</style>
<path class="st0" d="M387.1,62.4c2-0.1,3.6,1.5,3.7,3.4c0.1,2-1.5,3.6-3.4,3.7c-2,0.1-3.6-1.5-3.7-3.4c0,0,0-0.1,0-0.1
	c-0.1-1.9,1.4-3.5,3.3-3.5C387,62.4,387,62.4,387.1,62.4z M387.1,69.2c1.8,0,3.2-1.3,3.3-3.1c0-1.8-1.3-3.2-3.1-3.3
	c-1.8,0-3.2,1.3-3.3,3.1c0,0,0,0.1,0,0.1c-0.1,1.7,1.2,3.1,2.8,3.2C386.9,69.2,387,69.2,387.1,69.2z M387,66.2h-0.7V68h-0.4v-4h1.5
	c0.6,0,1.1,0.5,1.1,1.1c0,0.6-0.5,1.1-1.1,1.1l1.3,1.7h-0.5L387,66.2z M386.2,64.4v1.5h1.1c0.5,0,0.9-0.2,0.9-0.7s-0.3-0.7-0.9-0.7
	L386.2,64.4z"/>
<path class="st0" d="M132.2,44.2c0.1,6-3.9,11.3-9.7,12.8l10.2,17.4h-9.5l-9.4-16.6H107v16.6h-8.5V30.7h18
	C127.1,30.7,132.2,36.9,132.2,44.2z M116.3,37.8H107v12.9h9.3c4.9,0,7.2-2.5,7.2-6.4S121.3,37.8,116.3,37.8L116.3,37.8z"/>
<rect x="138" y="43.2" class="st0" width="8.5" height="31.2"/>
<path class="st0" d="M171.3,74.8c-3.7,0-7.2-1.6-9.6-4.3v3.9h-8.2V29.4h8.5v17.2c2.4-2.6,5.8-4,9.4-3.9c8.2,0,13.8,6.3,13.8,16
	S179.4,74.8,171.3,74.8z M169.2,50.1c-4,0-7.3,3.1-7.3,8.7s3.3,8.6,7.3,8.6s7.2-3.1,7.2-8.6S173.2,50.1,169.2,50.1z"/>
<path class="st0" d="M207.2,74.8c-3.7,0-7.2-1.6-9.6-4.3v3.9h-8.2V29.4h8.5v17.2c2.4-2.6,5.8-4,9.4-3.9c8.2,0,13.8,6.3,13.8,16
	S215.3,74.8,207.2,74.8z M205.1,50.1c-4,0-7.3,3.1-7.3,8.7s3.3,8.6,7.3,8.6s7.2-3.1,7.2-8.6S209,50.1,205.1,50.1L205.1,50.1z"/>
<path class="st0" d="M223.6,58.8c0-9.8,6.9-16,16-16s16,6.2,16,16s-7.1,16-16.2,16S223.6,68.6,223.6,58.8z M246.9,58.8
	c0-5.9-3.5-8.8-7.4-8.8s-7.2,2.9-7.2,8.8s3.2,8.7,7,8.7S246.9,64.6,246.9,58.8z"/>
<path class="st0" d="M274.5,50c-3.8,0-5.9,2.5-5.9,7.2v17.1h-8.5V43.2h8.4v3.2c2.1-2.3,5.1-3.6,8.2-3.6c7.4,0,12.1,4.7,12.1,13.4
	v18.2h-8.5V57.2C280.2,52.5,278.4,50,274.5,50z"/>
<path class="st0" d="M141.4,39.2c0.3,0.1,0.6,0.1,0.9,0.1c2.4,0,4.5-1.7,4.9-4.1l0,0c0.8-2.6-0.7-5.4-3.3-6.3
	c-2.6-0.8-5.4,0.7-6.3,3.3c-0.1,0.4-0.2,0.8-0.2,1.2C137,36.2,138.7,38.7,141.4,39.2L141.4,39.2z"/>
<path class="st1" d="M46.4,40.5c0.3,0,0.6,0.1,0.9,0.1c2.5,0,4.6-1.8,5-4.2l0,0c0.5-2.8-1.4-5.5-4.2-5.9c-2.8-0.5-5.5,1.4-5.9,4.2
	S43.6,40,46.4,40.5C46.4,40.5,46.4,40.5,46.4,40.5z"/>
<path class="st1" d="M49,15.2c-19.6,0-35.4,15.9-35.4,35.4S29.4,86.1,49,86.1s35.4-15.9,35.4-35.4C84.4,31.1,68.6,15.2,49,15.2z
	 M18.2,50.6c0-17,13.8-30.8,30.7-30.8c7.8,0,15.2,2.9,20.9,8.2c6.5,7.5-5.6,16.3-18.1,19.1c-2,0.4-3.9,1.1-5.7,1.9
	c-3.2-2.3-7.1-3.5-11-3.3c-9.5,0.1-15.1,7.9-15.4,13.9C18.7,56.7,18.2,53.7,18.2,50.6L18.2,50.6z M42.4,70.5c-5-0.7-6.9-9.8,3-15.1
	C49.6,61.9,46.6,71.1,42.4,70.5L42.4,70.5z M49,81.4c-9.2,0-17.9-4.1-23.8-11.3c-3.3-4.3-3.8-10.1-1.2-14.8
	c2.8-4.2,7.8-6.4,12.7-5.5c1.6,0.4,3.2,1,4.6,1.9c-11.1,8-8.5,22,0.9,23.3c10.2,1.5,13.5-12.4,7.7-21.5c1.8-0.6,3.6-1,5.5-1.2
	c13.8-2.2,20.4-5.6,23.4-8.5c3.9,16.5-6.4,33-22.9,36.9c-2.3,0.5-4.7,0.8-7.1,0.8L49,81.4z"/>
<path class="st2" d="M40.5,69.8L40.5,69.8z"/>
<path class="st3" d="M40.4,69.8c-3.4-2.4-3.7-9.8,4.9-14.4c-1-1.5-2.4-2.8-3.9-3.8l-0.3,0.2C32.2,58.7,37.8,68.1,40.4,69.8z"/>
<path class="st3" d="M58.1,48.5c-3.1-0.2-7.9-1.1-12.1,0.6l0,0c1.6,1.2,3,2.7,4.1,4.4c1.8-0.6,3.6-1,5.5-1.2
	c8.1-1.3,13.8-3,17.6-4.8C68.3,49,62.6,48.7,58.1,48.5z"/>
<path class="st1" d="M305.2,45.6c-1.9,0-3.3,1.5-3.3,3.4c0,0.1,0,0.1,0,0.2c-0.2,1.8,1.2,3.4,3,3.6c0.1,0,0.2,0,0.3,0
	c1.2,0,2.3-0.7,2.9-1.7v-0.9h-2.8v-1.6h4.8v2.8c-0.8,2-2.8,3.2-4.9,3.2c-3-0.1-5.3-2.6-5.1-5.6c0.1-2.8,2.3-5,5.1-5.1
	c2-0.1,3.9,1,4.8,2.9l-1.9,0.6C307.5,46.2,306.4,45.6,305.2,45.6z"/>
<path class="st1" d="M319.8,47.2c0,1.4-0.9,2.7-2.3,3.1l2.5,4.2h-2.3l-2.2-4h-1.7v4h-2V44h4.3C318.5,44,319.8,45.5,319.8,47.2z
	 M316,45.7h-2.2v3.1h2.2c1.2,0,1.7-0.6,1.7-1.5S317.2,45.7,316,45.7z"/>
<path class="st1" d="M320.9,49.2c0-3,2.4-5.4,5.4-5.4s5.4,2.4,5.4,5.4c0,3-2.4,5.4-5.4,5.4l0,0c-2.9,0.1-5.3-2.2-5.4-5.1
	C320.9,49.4,320.9,49.3,320.9,49.2z M329.6,49.2c0.2-1.8-1.1-3.4-3-3.6c-0.1,0-0.2,0-0.3,0c-1.9,0-3.3,1.4-3.3,3.6
	c-0.2,1.8,1.1,3.4,2.9,3.6s3.4-1.1,3.6-2.9C329.6,49.7,329.6,49.5,329.6,49.2L329.6,49.2z"/>
<path class="st1" d="M334.8,54.5L331.9,44h2.2l1.9,8.1l2.1-8.1h2.3l2.1,8.1l1.9-8.1h2.2l-2.9,10.5h-2.4l-2-7.5l-2,7.5L334.8,54.5z"
	/>
<path class="st1" d="M308.3,64v1.7h-3.2v8.8H303v-8.8h-3.2V64H308.3z"/>
<path class="st1" d="M308.8,69.2c0-3,2.4-5.4,5.4-5.4s5.4,2.4,5.4,5.4c0,3-2.4,5.4-5.4,5.4l0,0c-2.9,0.1-5.3-2.2-5.4-5.1
	C308.8,69.4,308.8,69.3,308.8,69.2z M317.4,69.2c0.2-1.8-1.1-3.4-3-3.6c-0.1,0-0.2,0-0.3,0c-1.9,0-3.3,1.4-3.3,3.6
	c-0.2,1.8,1.1,3.4,2.9,3.6s3.4-1.1,3.6-2.9C317.5,69.7,317.5,69.5,317.4,69.2L317.4,69.2z"/>
<path class="st1" d="M325.9,65.6c-1.9,0-3.3,1.5-3.3,3.4c0,0.1,0,0.1,0,0.2c-0.2,1.8,1.2,3.4,3,3.6c0.1,0,0.2,0,0.3,0
	c1.2,0,2.3-0.7,2.9-1.7v-0.9H326v-1.6h4.8v2.8c-0.8,2-2.8,3.2-4.9,3.2c-3-0.1-5.3-2.6-5.1-5.6c0.1-2.8,2.3-5,5.1-5.1
	c2-0.1,3.9,1,4.8,2.9l-1.9,0.6C328.3,66.2,327.1,65.5,325.9,65.6z"/>
<path class="st1" d="M334.5,65.7v2.6h3.9V70h-3.9v2.8h5.4v1.7h-7.4V64h7.4v1.7L334.5,65.7z"/>
<path class="st1" d="M349.6,64v1.7h-3.2v8.8h-2v-8.8H341V64H349.6z"/>
<path class="st1" d="M353.1,64v4.3h4.6V64h2v10.5h-2V70h-4.6v4.5h-2V64H353.1z"/>
<path class="st1" d="M363.9,65.7v2.6h3.9V70h-3.9v2.8h5.3v1.7h-7.4V64h7.4v1.7L363.9,65.7z"/>
<path class="st1" d="M379,67.2c0,1.4-0.9,2.7-2.3,3.1l2.5,4.2h-2.3l-2.2-4H373v4h-2V64h4.3C377.8,64,379,65.5,379,67.2z M375.2,65.7
	H373v3.1h2.2c1.2,0,1.7-0.6,1.7-1.5S376.4,65.7,375.2,65.7z"/>
</svg>
